<svg version="1.0" xmlns="http://www.w3.org/2000/svg" viewBox="0 0 687.000000 570.000000"><g transform="translate(0.000000,570.000000) scale(0.100000,-0.100000)" stroke="none"> <path d="M2864 5630 c-63 -9 -189 -53 -263 -92 -63 -34 -161 -107 -207 -155 -36 -38 -46 -40 -88 -14 -44 26 -171 68 -241 80 -33 5 -112 7 -175 5 -172 -5 -321 -58 -465 -164 -133 -98 -255 -274 -302 -434 -38 -131 -37 -332 2 -485 25 -98 40 -121 78 -121 17 0 50 -5 72 -11 22 -6 58 -14 80 -19 77 -15 195 -50 319 -94 130 -46 139 -50 321 -136 61 -29 124 -59 140 -66 17 -8 37 -18 45 -24 8 -5 62 -37 120 -71 58 -34 143 -88 190 -119 47 -31 108 -72 135 -90 28 -19 69 -49 92 -68 24 -19 49 -32 57 -29 9 4 26 23 39 44 48 75 233 324 282 379 11 12 68 76 127 141 164 182 451 436 575 508 26 15 34 27 39 63 9 63 -4 266 -22 342 -41 166 -167 359 -302 463 -66 51 -202 124 -260 139 -132 35 -274 45 -388 28z"/> <path d="M4609 4540 c-8 -4 -36 -10 -62 -14 -108 -14 -324 -102 -452 -185 -22 -14 -45 -28 -51 -31 -26 -12 -145 -103 -242 -185 -128 -107 -299 -277 -403 -400 -130 -154 -304 -394 -348 -480 -6 -11 -27 -47 -46 -80 -19 -33 -37 -67 -41 -75 -5 -15 -16 -41 -48 -113 -9 -21 -16 -48 -16 -60 -1 -52 -17 -51 -59 4 -126 165 -392 384 -671 553 -19 12 -44 27 -55 34 -11 7 -42 24 -70 38 -27 14 -79 41 -114 60 -74 40 -240 117 -297 138 -149 55 -220 77 -299 96 -49 12 -107 25 -127 31 -103 27 -451 34 -496 10 -9 -5 -37 -12 -62 -16 -143 -24 -360 -178 -464 -330 -81 -120 -119 -221 -140 -375 -14 -107 -2 -264 28 -355 35 -107 106 -230 177 -305 72 -77 78 -94 55 -138 -68 -131 -96 -279 -84 -442 15 -198 94 -373 237 -522 44 -47 152 -125 221 -161 180 -93 442 -112 645 -48 118 37 347 151 425 211 19 15 45 32 57 39 12 6 42 28 67 49 24 20 61 51 82 67 49 39 243 224 315 301 219 233 423 520 532 749 57 118 67 145 67 173 0 15 3 37 6 49 6 21 7 21 30 -13 13 -19 24 -38 24 -41 0 -25 253 -269 333 -321 14 -10 71 -49 126 -89 276 -198 607 -369 896 -463 39 -13 78 -27 87 -31 22 -11 138 -36 270 -58 215 -36 466 -8 617 69 222 113 374 294 445 530 82 276 3 590 -204 808 -54 57 -58 69 -36 110 50 96 73 178 85 302 9 96 8 113 -10 230 -16 103 -58 208 -122 308 -32 49 -163 184 -219 225 -59 43 -195 105 -283 128 -82 21 -278 34 -306 19z"/> <path d="M2983 2158 c-11 -13 -35 -45 -53 -73 -35 -52 -209 -286 -220 -295 -3 -3 -32 -36 -64 -75 -110 -132 -381 -399 -485 -477 -24 -18 -69 -52 -100 -75 -78 -59 -111 -82 -228 -152 -67 -41 -103 -69 -106 -84 -9 -33 10 -224 26 -282 47 -161 111 -269 231 -387 48 -49 92 -88 97 -88 4 0 25 -12 46 -26 63 -43 137 -74 240 -100 85 -22 113 -24 213 -21 176 7 238 24 395 104 48 24 177 123 193 147 21 33 41 39 74 23 161 -76 231 -92 403 -91 125 0 149 4 225 28 176 58 304 143 411 272 56 68 63 79 109 172 65 131 74 180 74 367 -1 168 -1 171 -36 275 -58 170 -50 160 -158 190 -74 21 -219 71 -248 86 -15 8 -32 14 -38 14 -11 0 -185 77 -239 106 -16 9 -73 38 -125 66 -141 73 -207 112 -364 217 -37 25 -78 53 -91 61 -30 20 -67 48 -116 88 -23 17 -42 32 -43 32 -1 0 -12 -10 -23 -22z"/> <path d="M5534 1612 c-79 -57 -248 -131 -351 -153 -26 -5 -66 -14 -88 -19 -22 -5 -83 -12 -135 -15 -52 -3 -110 -8 -129 -11 -31 -5 -33 -7 -27 -37 3 -18 15 -93 28 -167 12 -74 22 -136 23 -137 1 -2 55 -22 121 -44 125 -44 311 -95 403 -110 30 -6 57 -12 61 -14 11 -7 258 -43 335 -50 39 -3 95 -10 125 -15 89 -14 617 -5 665 11 89 32 146 72 200 144 55 72 70 119 70 225 0 88 -3 100 -33 162 -37 74 -99 136 -171 172 -50 25 -147 50 -162 41 -5 -4 -102 -6 -216 -7 -199 0 -465 20 -558 42 -73 17 -119 12 -161 -18z"/> </g> </svg>
